<svg width="99" height="105" viewBox="0 0 99 105" fill="none" xmlns="http://www.w3.org/2000/svg">
<g id="Group">
<path id="Vector" d="M49.45 104.333C22.84 104.333 1.17999 81.0719 1.17999 52.4706C1.17999 23.8801 22.83 0.608032 49.45 0.608032C76.07 0.608032 97.72 23.8693 97.72 52.4706C97.71 81.0719 76.06 104.333 49.45 104.333Z" fill="white"/>
<path id="Vector_2" d="M49.45 1.15609C75.79 1.15609 97.22 24.181 97.22 52.4815C97.22 80.7819 75.79 103.807 49.45 103.807C23.11 103.807 1.67999 80.7819 1.67999 52.4815C1.67999 24.181 23.11 1.15609 49.45 1.15609ZM49.45 0.081665C22.52 0.081665 0.679993 23.5363 0.679993 52.4815C0.679993 81.4158 22.51 104.881 49.45 104.881C76.39 104.881 98.22 81.4266 98.22 52.4815C98.21 23.5363 76.38 0.081665 49.45 0.081665Z" fill="#F1F2F2"/>
</g>
</svg>
